<svg width="43" height="43" viewBox="0 0 43 43" fill="none" xmlns="http://www.w3.org/2000/svg">
<path d="M1.97749 14.5033L2.07999 41.0083L28.4133 40.94L41.94 30.625L42.0425 14.4008L1.97833 14.5033H1.97749Z" fill="white"/>
<path d="M2.11833 14.45H41.8767V1.21001H2.11833V14.45ZM33.6642 4.96667H33.6892C34.0339 4.96888 34.3748 5.03947 34.6921 5.17436C35.0094 5.30925 35.2967 5.50576 35.5375 5.75251C36.0292 6.25251 36.2958 6.91417 36.2875 7.61501C36.2803 8.30614 36.0009 8.96658 35.51 9.45312C35.0191 9.93967 34.3562 10.2131 33.665 10.2142H33.64C32.9443 10.2067 32.28 9.92359 31.7927 9.42696C31.3054 8.93033 31.0351 8.26073 31.0408 7.56501C31.0481 6.87372 31.3275 6.21317 31.8186 5.7266C32.3097 5.24003 32.9728 4.96668 33.6642 4.96584V4.96667ZM8.43916 5.67334C8.94318 5.17637 9.62301 4.89845 10.3308 4.90001H10.3567C11.0726 4.90792 11.7563 5.19938 12.2577 5.7105C12.7591 6.22161 13.0374 6.91069 13.0317 7.62667C13.024 8.33807 12.7363 9.01779 12.2309 9.51852C11.7255 10.0192 11.0431 10.3006 10.3317 10.3017H10.305C9.58903 10.2938 8.90541 10.0023 8.40398 9.49118C7.90255 8.98007 7.62422 8.29099 7.63 7.57501C7.63232 7.22033 7.70496 6.86964 7.84371 6.54322C7.98246 6.2168 8.18457 5.92114 8.43833 5.67334H8.43916Z" fill="#FDC61A"/>
<path d="M39.4633 31.865H28.7825V35.5983C28.7825 35.8193 28.6947 36.0313 28.5384 36.1876C28.3821 36.3439 28.1702 36.4317 27.9492 36.4317C27.7507 36.4304 27.5594 36.3574 27.4105 36.2261C27.2617 36.0949 27.1653 35.9142 27.1392 35.7175V40.2383H28.1058L39.4633 31.865Z" fill="#D0CFCE"/>
<path d="M12.8326 7.64102C12.8459 6.26031 11.7374 5.13027 10.3566 5.11702C8.97593 5.10377 7.84589 6.21231 7.83264 7.59302C7.81938 8.97373 8.92793 10.1038 10.3086 10.117C11.6894 10.1303 12.8194 9.02173 12.8326 7.64102Z" stroke="black" stroke-width="2" stroke-miterlimit="10" stroke-linecap="round" stroke-linejoin="round"/>
<path d="M1.9975 1.17833H41.9975V14.5117H1.9975V1.17833Z" stroke="black" stroke-width="2" stroke-miterlimit="10" stroke-linecap="round" stroke-linejoin="round"/>
<path d="M36.1675 7.63935C36.1807 6.25864 35.0722 5.12861 33.6915 5.11535C32.3108 5.1021 31.1807 6.21064 31.1675 7.59135C31.1542 8.97207 32.2628 10.1021 33.6435 10.1154C35.0242 10.1286 36.1542 9.02007 36.1675 7.63935Z" stroke="black" stroke-width="2" stroke-miterlimit="10" stroke-linecap="round" stroke-linejoin="round"/>
<path d="M1.9975 14.41V41.0767L28.3808 41.0717L41.9975 31.0317V14.41" stroke="black" stroke-width="2" stroke-miterlimit="10" stroke-linecap="round" stroke-linejoin="round"/>
<path d="M8.84909 19.0752C8.85792 18.1548 8.11893 17.4014 7.19849 17.3926C6.27806 17.3838 5.52474 18.1228 5.51591 19.0432C5.50707 19.9636 6.24607 20.7169 7.1665 20.7258C8.08693 20.7346 8.84025 19.9956 8.84909 19.0752Z" fill="black"/>
<path d="M13.8496 19.0762C13.8584 18.1557 13.1194 17.4024 12.1989 17.3935C11.2784 17.3847 10.5251 18.1237 10.5162 19.0442C10.5074 19.9647 11.2464 20.718 12.1669 20.7269C13.0874 20.7357 13.8407 19.9967 13.8496 19.0762Z" fill="black"/>
<path d="M18.8501 19.0762C18.8589 18.1557 18.1199 17.4024 17.1994 17.3935C16.2789 17.3847 15.5256 18.1237 15.5167 19.0442C15.5079 19.9647 16.2469 20.718 17.1674 20.7269C18.0879 20.7357 18.8412 19.9967 18.8501 19.0762Z" fill="black"/>
<path d="M23.8506 19.0762C23.8594 18.1557 23.1204 17.4024 22.1999 17.3935C21.2794 17.3847 20.5261 18.1237 20.5172 19.0442C20.5084 19.9647 21.2474 20.718 22.1679 20.7269C23.0884 20.7357 23.8417 19.9967 23.8506 19.0762Z" fill="black"/>
<path d="M8.8499 24.0776C8.85874 23.1571 8.11971 22.4037 7.19923 22.3949C6.27876 22.386 5.5254 23.1251 5.51656 24.0456C5.50773 24.966 6.24676 25.7194 7.16723 25.7282C8.08771 25.7371 8.84106 24.998 8.8499 24.0776Z" fill="black"/>
<path d="M13.8504 24.0776C13.8592 23.1571 13.1202 22.4037 12.1997 22.3949C11.2793 22.386 10.5259 23.1251 10.5171 24.0456C10.5082 24.966 11.2473 25.7194 12.1677 25.7282C13.0882 25.7371 13.8416 24.998 13.8504 24.0776Z" fill="black"/>
<path d="M18.8501 24.0767C18.8589 23.1562 18.1199 22.4029 17.1994 22.394C16.2789 22.3852 15.5256 23.1242 15.5167 24.0447C15.5079 24.9652 16.2469 25.7185 17.1674 25.7274C18.0879 25.7362 18.8412 24.9972 18.8501 24.0767Z" fill="black"/>
<path d="M23.8506 24.0767C23.8594 23.1562 23.1204 22.4029 22.1999 22.394C21.2794 22.3852 20.5261 23.1242 20.5172 24.0447C20.5084 24.9652 21.2474 25.7185 22.1679 25.7274C23.0884 25.7362 23.8417 24.9972 23.8506 24.0767Z" fill="black"/>
<path d="M8.84909 29.0752C8.85792 28.1547 8.11893 27.4014 7.19849 27.3926C6.27806 27.3837 5.52474 28.1227 5.51591 29.0432C5.50707 29.9636 6.24607 30.7169 7.1665 30.7258C8.08693 30.7346 8.84025 29.9956 8.84909 29.0752Z" fill="black"/>
<path d="M41.8917 31.0317H27.9475V35.5983" stroke="black" stroke-width="2" stroke-miterlimit="10" stroke-linecap="round" stroke-linejoin="round"/>
</svg>
