<svg width="50" height="48" viewBox="0 0 50 48" fill="none" xmlns="http://www.w3.org/2000/svg">
<path d="M49 48C49 48 49 45 47.9091 41C46.5891 36.154 43.5455 33 37 33H13C6.45455 33 3.41091 36.154 2.09091 41C1 45 1 48 1 48H49Z" fill="#FDC61A"/>
<path d="M14.0909 13C14.0909 16.725 14.68 20.809 16.2727 23C18.3029 25.793 21.7469 27 25 27C28.3774 27 31.6949 25.793 33.7273 23C35.32 20.809 35.9091 16.725 35.9091 13C35.9091 10.207 34.8182 1 25 1C15.1818 1 14.0909 8.344 14.0909 13Z" fill="#FDC61A"/>
<path d="M49 47C49 47 49 45 47.9091 41C46.5891 36.154 43.5455 33 37 33H13C6.45455 33 3.41091 36.154 2.09091 41C1 45 1 47 1 47" stroke="black" stroke-width="2" stroke-linecap="round" stroke-linejoin="round"/>
<path d="M14.0909 13C14.0909 16.725 14.68 20.809 16.2727 23C18.3029 25.793 21.7469 27 25 27C28.3774 27 31.6949 25.793 33.7273 23C35.32 20.809 35.9091 16.725 35.9091 13C35.9091 10.207 34.8182 1 25 1C15.1818 1 14.0909 8.344 14.0909 13Z" stroke="black" stroke-width="2" stroke-linejoin="round"/>
</svg>
