<svg width="42" height="43" viewBox="0 0 42 43" fill="none" xmlns="http://www.w3.org/2000/svg">
<path d="M16.46 25.4867L9.79666 35.9983L12.5792 37.8333L17.1542 30.4125C17.3658 30.0692 24.5308 32.5292 24.5308 32.5292L33.5867 11.0275L30.515 9.73416L22.69 27.6758C22.5108 28.1008 16.46 25.4858 16.46 25.4858V25.4867Z" fill="#FDC61A"/>
<path d="M30.515 9.73502L22.7625 28.1408L16.46 25.4867L9.79666 35.9983L12.5792 37.8333L17.5833 29.7167L21.4583 31.2358L24.5308 32.53L33.5867 11.0275L30.515 9.73502Z" stroke="black" stroke-width="2" stroke-miterlimit="10" stroke-linecap="round" stroke-linejoin="round"/>
<path d="M1.04333 2.01251H40.9575V41.9267H1.04333V2.01251Z" stroke="black" stroke-width="2" stroke-miterlimit="10" stroke-linecap="round" stroke-linejoin="round"/>
<path d="M32.7242 22.0708H40.8375" stroke="black" stroke-width="2" stroke-miterlimit="10" stroke-linecap="round" stroke-linejoin="round"/>
<path d="M1.61583 22.0708H21.9825" stroke="black" stroke-width="2" stroke-miterlimit="10" stroke-linecap="round" stroke-linejoin="round"/>
<path d="M28.52 31.9942H40.7358" stroke="black" stroke-width="2" stroke-miterlimit="10" stroke-linecap="round" stroke-linejoin="round"/>
<path d="M1.61583 31.9942H8.34916" stroke="black" stroke-width="2" stroke-miterlimit="10" stroke-linecap="round" stroke-linejoin="round"/>
<path d="M31.1108 25.7033L31.2092 41.475" stroke="black" stroke-width="2" stroke-miterlimit="10" stroke-linecap="round" stroke-linejoin="round"/>
<path d="M31.0275 2.04916L31.0309 6.31833" stroke="black" stroke-width="2" stroke-miterlimit="10" stroke-linecap="round" stroke-linejoin="round"/>
<path d="M21.1533 35.0417V41.6442" stroke="black" stroke-width="2" stroke-miterlimit="10" stroke-linecap="round" stroke-linejoin="round"/>
<path d="M21.1533 2.27499V23.5258" stroke="black" stroke-width="2" stroke-miterlimit="10" stroke-linecap="round" stroke-linejoin="round"/>
<path d="M11.1875 40.8442V41.6442" stroke="black" stroke-width="2" stroke-miterlimit="10" stroke-linecap="round" stroke-linejoin="round"/>
<path d="M11.1875 1.96918V27.9158" stroke="black" stroke-width="2" stroke-miterlimit="10" stroke-linecap="round" stroke-linejoin="round"/>
<path d="M36.9867 12.1475H40.355" stroke="black" stroke-width="2" stroke-miterlimit="10" stroke-linecap="round" stroke-linejoin="round"/>
<path d="M1.22 12.1475H25.7925" stroke="black" stroke-width="2" stroke-miterlimit="10" stroke-linecap="round" stroke-linejoin="round"/>
</svg>
