<svg width="42" height="41" viewBox="0 0 42 41" fill="none" xmlns="http://www.w3.org/2000/svg">
<path d="M33.4942 15.9209C33.4942 15.9209 31.9817 15.5459 32.595 14.1925L36.3483 7.95585L33.3067 5.10836L32.6983 4.53919L26.7517 8.44752C26.5672 8.52998 26.3669 8.57083 26.1649 8.56718C25.9629 8.56352 25.7641 8.51545 25.5828 8.42637C25.4015 8.33729 25.242 8.20939 25.1156 8.05174C24.9892 7.8941 24.8991 7.71057 24.8517 7.51419L23.28 1.00085H18.28L16.7125 7.48835C16.5125 8.31335 15.6208 8.80502 14.8433 8.46502L14.8067 8.44835L8.85999 4.54002L8.25166 5.10919L5.20999 7.95669L8.96332 14.1934C9.57666 15.5467 8.06416 15.9217 8.06416 15.9217L1.00082 17.6784L1.13749 21.8425L1.16499 22.6759L8.13416 24.1167C8.32056 24.1881 8.4892 24.2991 8.62838 24.4422C8.76756 24.5853 8.87394 24.7569 8.94014 24.9452C9.00635 25.1335 9.03078 25.334 9.01176 25.5327C8.99274 25.7314 8.93072 25.9235 8.82999 26.0959L8.80332 26.1425L5.04999 32.3792L8.09166 35.2267L8.69999 35.7967L14.6467 31.8884L14.6833 31.8717L14.7117 31.8617C15.6783 31.5484 16.7058 32.1509 16.9442 33.1392L18.44 39.3334H23.44L25.0125 32.8209C25.06 32.6246 25.1501 32.4412 25.2764 32.2836C25.4027 32.126 25.5621 31.9982 25.7433 31.9091C25.9246 31.82 26.1232 31.7719 26.3251 31.7682C26.527 31.7645 26.7273 31.8052 26.9117 31.8875L32.8583 35.7959L33.4667 35.2259L36.5083 32.3784L32.755 26.1417L32.7275 26.095C32.6266 25.9226 32.5645 25.7303 32.5455 25.5315C32.5264 25.3327 32.5509 25.1321 32.6172 24.9437C32.6835 24.7552 32.79 24.5835 32.9294 24.4404C33.0687 24.2973 33.2376 24.1863 33.4242 24.115L40.3925 22.6742L40.42 21.8409L40.5575 17.6775L33.4942 15.9209V15.9209ZM20.7792 28.5C16.1767 28.5 12.4458 24.7692 12.4458 20.1667C12.4458 15.5642 16.1767 11.8334 20.7792 11.8334C25.3817 11.8334 29.1125 15.565 29.1125 20.1667C29.1125 24.7684 25.3817 28.5 20.7792 28.5Z" fill="#C1C1C1"/>
<path d="M20.7792 11.8334C16.1767 11.8334 12.4458 15.565 12.4458 20.1667C12.4458 24.7684 16.1767 28.5 20.7792 28.5C25.3817 28.5 29.1125 24.7692 29.1125 20.1667C29.1125 15.5642 25.3817 11.8334 20.7792 11.8334ZM20.7792 24.3334C19.6741 24.3334 18.6143 23.8944 17.8329 23.113C17.0515 22.3316 16.6125 21.2718 16.6125 20.1667C16.6125 19.0616 17.0515 18.0018 17.8329 17.2204C18.6143 16.439 19.6741 16 20.7792 16C21.8842 16 22.944 16.439 23.7254 17.2204C24.5068 18.0018 24.9458 19.0616 24.9458 20.1667C24.9458 21.2718 24.5068 22.3316 23.7254 23.113C22.944 23.8944 21.8842 24.3334 20.7792 24.3334Z" fill="#FDC61A"/>
<path d="M20.7792 24.3333C23.0804 24.3333 24.9458 22.4679 24.9458 20.1667C24.9458 17.8655 23.0804 16 20.7792 16C18.478 16 16.6125 17.8655 16.6125 20.1667C16.6125 22.4679 18.478 24.3333 20.7792 24.3333Z" stroke="#1A1A1A" stroke-width="2" stroke-miterlimit="10" stroke-linecap="round" stroke-linejoin="round"/>
<path d="M20.7792 28.5C25.3815 28.5 29.1125 24.769 29.1125 20.1666C29.1125 15.5643 25.3815 11.8333 20.7792 11.8333C16.1768 11.8333 12.4458 15.5643 12.4458 20.1666C12.4458 24.769 16.1768 28.5 20.7792 28.5Z" stroke="#1A1A1A" stroke-width="2" stroke-miterlimit="10" stroke-linecap="round" stroke-linejoin="round"/>
<path d="M16.7125 7.48833C16.5125 8.31333 15.6208 8.805 14.8433 8.465C14.8308 8.45952 14.8183 8.45396 14.8058 8.44833L8.85917 4.54L8.25083 5.10917L5.20917 7.95667L8.9625 14.1933C9.57583 15.5467 8.06333 15.9217 8.06333 15.9217L1 17.6783L1.1375 21.8425L1.165 22.6758L8.13333 24.1167C8.31981 24.188 8.48854 24.299 8.6278 24.442C8.76707 24.585 8.87354 24.7567 8.93983 24.945C9.00611 25.1333 9.03062 25.3338 9.01166 25.5325C8.99269 25.7312 8.93071 25.9235 8.83 26.0958L8.8025 26.1425L5.04917 32.3792L8.09083 35.2267L8.69917 35.7967L14.6458 31.8883L14.6833 31.8717L14.7108 31.8617C15.6775 31.5483 16.705 32.1508 16.9442 33.1392L18.4392 39.3333H23.4392L25.0117 32.8208C25.0591 32.6244 25.1492 32.4409 25.2756 32.2833C25.402 32.1256 25.5615 31.9977 25.7428 31.9087C25.9242 31.8196 26.1229 31.7715 26.3249 31.7678C26.5269 31.7642 26.7272 31.805 26.9117 31.8875V31.8875L32.8575 35.7958L33.4658 35.2258L36.5075 32.3783L32.7542 26.1417L32.7275 26.095C32.6266 25.9226 32.5645 25.7303 32.5455 25.5315C32.5264 25.3326 32.5509 25.132 32.6172 24.9436C32.6835 24.7552 32.79 24.5835 32.9294 24.4404C33.0687 24.2973 33.2376 24.1863 33.4242 24.115V24.115L40.3925 22.6742L40.42 21.8408L40.5575 17.6767L33.4933 15.9208C33.4933 15.9208 31.9808 15.5458 32.595 14.1925L36.3475 7.95583L33.3058 5.10833L32.6975 4.53833L26.7508 8.44667C26.5664 8.52897 26.3662 8.56971 26.1643 8.56598C25.9624 8.56224 25.7638 8.51414 25.5825 8.42507C25.4013 8.336 25.2419 8.20816 25.1156 8.05059C24.9893 7.89303 24.8992 7.70961 24.8517 7.51333L23.2792 1H18.2792L16.7125 7.48833Z" stroke="#1A1A1A" stroke-width="2" stroke-miterlimit="10" stroke-linecap="round" stroke-linejoin="round"/>
</svg>
