<svg width="25" height="14" viewBox="0 0 25 14" fill="none" xmlns="http://www.w3.org/2000/svg">
<path d="M2.27273 9.09091L2.84091 9.17045L8.03409 3.97727C7.9299 3.59568 7.92975 3.19316 8.03366 2.81149C8.13757 2.42982 8.34175 2.08293 8.625 1.80682C9.51136 0.909091 10.9432 0.909091 11.8295 1.80682C12.4318 2.39773 12.625 3.23864 12.4205 3.97727L15.3409 6.89773L15.9091 6.81818C16.1136 6.81818 16.3068 6.81818 16.4773 6.89773L20.5341 2.84091C20.4545 2.67045 20.4545 2.47727 20.4545 2.27273C20.4545 1.66996 20.694 1.09189 21.1202 0.665666C21.5464 0.239447 22.1245 0 22.7273 0C23.33 0 23.9081 0.239447 24.3343 0.665666C24.7606 1.09189 25 1.66996 25 2.27273C25 2.87549 24.7606 3.45357 24.3343 3.87979C23.9081 4.30601 23.33 4.54545 22.7273 4.54545C22.5227 4.54545 22.3295 4.54546 22.1591 4.46591L18.1023 8.52273C18.1818 8.69318 18.1818 8.88636 18.1818 9.09091C18.1818 9.69368 17.9424 10.2718 17.5162 10.698C17.0899 11.1242 16.5119 11.3636 15.9091 11.3636C15.3063 11.3636 14.7282 11.1242 14.302 10.698C13.8758 10.2718 13.6364 9.69368 13.6364 9.09091L13.7159 8.52273L10.7955 5.60227C10.4318 5.68182 10.0227 5.68182 9.65909 5.60227L4.46591 10.7955L4.54545 11.3636C4.54545 11.9664 4.30601 12.5445 3.87979 12.9707C3.45357 13.3969 2.87549 13.6364 2.27273 13.6364C1.66996 13.6364 1.09189 13.3969 0.665666 12.9707C0.239447 12.5445 0 11.9664 0 11.3636C0 10.7609 0.239447 10.1828 0.665666 9.75658C1.09189 9.33036 1.66996 9.09091 2.27273 9.09091Z" fill="#1A1A1A" fill-opacity="0.8"/>
</svg>
