<svg width="25" height="26" viewBox="0 0 25 26" fill="none" xmlns="http://www.w3.org/2000/svg">
<path d="M22.0574 14.1085C22.1109 13.7069 22.1377 13.292 22.1377 12.8502C22.1377 12.4219 22.1109 11.9936 22.044 11.592L24.7613 9.47706C24.8784 9.38055 24.9584 9.24642 24.9877 9.09753C25.017 8.94864 24.9937 8.79421 24.9219 8.66053L22.3519 4.21649C22.2762 4.08205 22.1554 3.97873 22.0108 3.92483C21.8663 3.87093 21.7073 3.86993 21.5621 3.92201L18.3629 5.20703C17.6936 4.69837 16.9842 4.27003 16.1944 3.94878L15.7126 0.548816C15.6889 0.395591 15.611 0.255947 15.4931 0.155246C15.3752 0.054544 15.2251 -0.000537441 15.07 3.95332e-06H9.92995C9.60869 3.95332e-06 9.35437 0.22756 9.30082 0.548816L8.81894 3.94878C8.02919 4.27003 7.30636 4.71176 6.65046 5.20703L3.45129 3.92201C3.1568 3.81492 2.82216 3.92201 2.66153 4.21649L0.104867 8.66053C-0.0557606 8.94163 -0.0022181 9.28966 0.265495 9.47706L2.98279 11.592C2.91586 11.9936 2.86232 12.4353 2.86232 12.8502C2.86232 13.2652 2.88909 13.7069 2.95602 14.1085L0.238724 16.2234C0.121632 16.32 0.0416249 16.4541 0.0123356 16.603C-0.0169538 16.7519 0.00628629 16.9063 0.0780961 17.04L2.64814 21.484C2.80877 21.7785 3.14341 21.8722 3.4379 21.7785L6.63707 20.4935C7.30636 21.0021 8.0158 21.4305 8.80555 21.7517L9.28744 25.1517C9.35437 25.4729 9.60869 25.7005 9.92995 25.7005H15.07C15.3913 25.7005 15.659 25.4729 15.6992 25.1517L16.1811 21.7517C16.9708 21.4305 17.6936 21.0021 18.3495 20.4935L21.5487 21.7785C21.8432 21.8856 22.1778 21.7785 22.3385 21.484L24.9085 17.04C25.0691 16.7455 25.0022 16.4108 24.7479 16.2234L22.0574 14.1085ZM12.5 17.6691C9.84964 17.6691 7.68116 15.5006 7.68116 12.8502C7.68116 10.1999 9.84964 8.03141 12.5 8.03141C15.1504 8.03141 17.3188 10.1999 17.3188 12.8502C17.3188 15.5006 15.1504 17.6691 12.5 17.6691Z" fill="#484848"/>
</svg>
